<?xml version="1.0" encoding="UTF-8"?>
<svg viewBox="0 0 569 380" version="1.1" xmlns="http://www.w3.org/2000/svg" xmlns:xlink="http://www.w3.org/1999/xlink">
    <title>illustration</title>
    <defs>
        <polygon id="path-1" points="0.490045482 0.12882199 73.9156412 0.12882199 73.9156412 75.3573325 0.490045482 75.3573325"></polygon>
        <path d="M27.5974548,0.243406326 L0.331911905,28.066545 L3.29274524,101.057019 L38.8132905,171.676277 C38.8132905,171.676277 83.2447,204.466302 112.41911,204.521193 L112.41911,204.521193 C141.593021,204.576034 156.818671,115.664392 156.818671,115.664392 L156.818671,115.664392 L208.819862,34.9337956 L146.668238,0.243406326" id="path-3"></path>
        <path d="M27.5974548,0.243406326 L0.331911905,28.066545 L3.29274524,101.057019 L38.8132905,171.676277 C38.8132905,171.676277 83.2447,204.466302 112.41911,204.521193 L112.41911,204.521193 C141.593021,204.576034 156.818671,115.664392 156.818671,115.664392 L156.818671,115.664392 L208.819862,34.9337956 L146.668238,0.243406326" id="path-5"></path>
        <path d="M27.5974548,0.243406326 L0.331911905,28.066545 L3.29274524,101.057019 L38.8132905,171.676277 C38.8132905,171.676277 83.2447,204.466302 112.41911,204.521193 L112.41911,204.521193 C141.593021,204.576034 156.818671,115.664392 156.818671,115.664392 L156.818671,115.664392 L208.819862,34.9337956 L146.668238,0.243406326" id="path-7"></path>
        <path d="M27.5974548,0.243406326 L0.331911905,28.066545 L3.29274524,101.057019 L38.8132905,171.676277 C38.8132905,171.676277 83.2447,204.466302 112.41911,204.521193 L112.41911,204.521193 C141.593021,204.576034 156.818671,115.664392 156.818671,115.664392 L156.818671,115.664392 L208.819862,34.9337956 L146.668238,0.243406326" id="path-9"></path>
        <path d="M27.5974548,0.243406326 L0.331911905,28.066545 L3.29274524,101.057019 L38.8132905,171.676277 C38.8132905,171.676277 83.2447,204.466302 112.41911,204.521193 L112.41911,204.521193 C141.593021,204.576034 156.818671,115.664392 156.818671,115.664392 L156.818671,115.664392 L208.819862,34.9337956 L146.668238,0.243406326" id="path-11"></path>
        <path d="M27.5974548,0.243406326 L0.331911905,28.066545 L3.29274524,101.057019 L38.8132905,171.676277 C38.8132905,171.676277 83.2447,204.466302 112.41911,204.521193 L112.41911,204.521193 C141.593021,204.576034 156.818671,115.664392 156.818671,115.664392 L156.818671,115.664392 L208.819862,34.9337956 L146.668238,0.243406326" id="path-13"></path>
        <path d="M27.5974548,0.243406326 L0.331911905,28.066545 L3.29274524,101.057019 L38.8132905,171.676277 C38.8132905,171.676277 83.2447,204.466302 112.41911,204.521193 L112.41911,204.521193 C141.593021,204.576034 156.818671,115.664392 156.818671,115.664392 L156.818671,115.664392 L208.819862,34.9337956 L146.668238,0.243406326" id="path-15"></path>
        <path d="M117.460518,14.062336 L62.1702835,9.81659514 L0.341414484,89.8876032 L34.3644129,176.119567 L97.3747951,223.668777 L131.015569,245.741084 C131.015569,245.741084 186.265988,245.848615 212.771398,233.407688 L212.771398,233.407688 C239.27631,220.967259 265.960888,130.854571 265.960888,130.854571 L265.960888,130.854571 L303.790707,58.6829514 L322.501814,24.1627773 L322.501814,24.1617814 L244.402504,0.224089069" id="path-17"></path>
        <path d="M117.460518,14.062336 L62.1702835,9.81659514 L0.341414484,89.8876032 L34.3644129,176.119567 L97.3747951,223.668777 L131.015569,245.741084 C131.015569,245.741084 186.265988,245.848615 212.771398,233.407688 L212.771398,233.407688 C239.27631,220.967259 265.960888,130.854571 265.960888,130.854571 L265.960888,130.854571 L303.790707,58.6829514 L322.501814,24.1627773 L322.501814,24.1617814 L244.402504,0.224089069" id="path-19"></path>
        <path d="M117.460518,14.062336 L62.1702835,9.81659514 L0.341414484,89.8876032 L34.3644129,176.119567 L97.3747951,223.668777 L131.015569,245.741084 C131.015569,245.741084 186.265988,245.848615 212.771398,233.407688 L212.771398,233.407688 C239.27631,220.967259 265.960888,130.854571 265.960888,130.854571 L265.960888,130.854571 L303.790707,58.6829514 L322.501814,24.1627773 L322.501814,24.1617814 L244.402504,0.224089069" id="path-21"></path>
        <path d="M117.460518,14.062336 L62.1702835,9.81659514 L0.341414484,89.8876032 L34.3644129,176.119567 L97.3747951,223.668777 L131.015569,245.741084 C131.015569,245.741084 186.265988,245.848615 212.771398,233.407688 L212.771398,233.407688 C239.27631,220.967259 265.960888,130.854571 265.960888,130.854571 L265.960888,130.854571 L303.790707,58.6829514 L322.501814,24.1627773 L322.501814,24.1617814 L244.402504,0.224089069" id="path-23"></path>
        <path d="M117.460518,14.062336 L62.1702835,9.81659514 L0.341414484,89.8876032 L34.3644129,176.119567 L97.3747951,223.668777 L131.015569,245.741084 C131.015569,245.741084 186.265988,245.848615 212.771398,233.407688 L212.771398,233.407688 C239.27631,220.967259 265.960888,130.854571 265.960888,130.854571 L265.960888,130.854571 L303.790707,58.6829514 L322.501814,24.1627773 L322.501814,24.1617814 L244.402504,0.224089069" id="path-25"></path>
        <path d="M117.460518,14.062336 L62.1702835,9.81659514 L0.341414484,89.8876032 L34.3644129,176.119567 L97.3747951,223.668777 L131.015569,245.741084 C131.015569,245.741084 186.265988,245.848615 212.771398,233.407688 L212.771398,233.407688 C239.27631,220.967259 265.960888,130.854571 265.960888,130.854571 L265.960888,130.854571 L303.790707,58.6829514 L322.501814,24.1627773 L322.501814,24.1617814 L244.402504,0.224089069" id="path-27"></path>
        <path d="M117.460518,14.062336 L62.1702835,9.81659514 L0.341414484,89.8876032 L34.3644129,176.119567 L97.3747951,223.668777 L131.015569,245.741084 C131.015569,245.741084 186.265988,245.848615 212.771398,233.407688 L212.771398,233.407688 C239.27631,220.967259 265.960888,130.854571 265.960888,130.854571 L265.960888,130.854571 L303.790707,58.6829514 L322.501814,24.1627773 L322.501814,24.1617814 L244.402504,0.224089069" id="path-29"></path>
        <path d="M117.460518,14.062336 L62.1702835,9.81659514 L0.341414484,89.8876032 L34.3644129,176.119567 L97.3747951,223.668777 L131.015569,245.741084 C131.015569,245.741084 186.265988,245.848615 212.771398,233.407688 L212.771398,233.407688 C239.27631,220.967259 265.960888,130.854571 265.960888,130.854571 L265.960888,130.854571 L303.790707,58.6829514 L322.501814,24.1627773 L322.501814,24.1617814 L244.402504,0.224089069" id="path-31"></path>
        <path d="M117.460518,14.062336 L62.1702835,9.81659514 L0.341414484,89.8876032 L34.3644129,176.119567 L97.3747951,223.668777 L131.015569,245.741084 C131.015569,245.741084 186.265988,245.848615 212.771398,233.407688 L212.771398,233.407688 C239.27631,220.967259 265.960888,130.854571 265.960888,130.854571 L265.960888,130.854571 L303.790707,58.6829514 L322.501814,24.1627773 L322.501814,24.1617814 L244.402504,0.224089069" id="path-33"></path>
        <path d="M117.460518,14.062336 L62.1702835,9.81659514 L0.341414484,89.8876032 L34.3644129,176.119567 L97.3747951,223.668777 L131.015569,245.741084 C131.015569,245.741084 186.265988,245.848615 212.771398,233.407688 L212.771398,233.407688 C239.27631,220.967259 265.960888,130.854571 265.960888,130.854571 L265.960888,130.854571 L303.790707,58.6829514 L322.501814,24.1627773 L322.501814,24.1617814 L244.402504,0.224089069" id="path-35"></path>
        <path d="M117.460518,14.062336 L62.1702835,9.81659514 L0.341414484,89.8876032 L34.3644129,176.119567 L97.3747951,223.668777 L131.015569,245.741084 C131.015569,245.741084 186.265988,245.848615 212.771398,233.407688 L212.771398,233.407688 C239.27631,220.967259 265.960888,130.854571 265.960888,130.854571 L265.960888,130.854571 L303.790707,58.6829514 L322.501814,24.1627773 L322.501814,24.1617814 L244.402504,0.224089069" id="path-37"></path>
        <path d="M117.460518,14.062336 L62.1702835,9.81659514 L0.341414484,89.8876032 L34.3644129,176.119567 L97.3747951,223.668777 L131.015569,245.741084 C131.015569,245.741084 186.265988,245.848615 212.771398,233.407688 L212.771398,233.407688 C239.27631,220.967259 265.960888,130.854571 265.960888,130.854571 L265.960888,130.854571 L303.790707,58.6829514 L322.501814,24.1627773 L322.501814,24.1617814 L244.402504,0.224089069" id="path-39"></path>
        <path d="M340.870898,20.266125 C320.923142,30.8002926 302.770324,45.3151729 281.103415,51.6244335 L281.103415,51.6244335 C246.421702,61.7234282 209.725668,49.1730426 175.139685,38.7502793 L175.139685,38.7502793 C140.554201,28.327516 101.216615,20.4227872 69.8495558,38.3076463 L69.8495558,38.3076463 C54.896716,46.8335532 43.5177994,60.4069681 33.70397,74.5244734 L33.70397,74.5244734 C21.7097882,91.7801968 11.4671678,110.464282 5.63012559,130.638399 L5.63012559,130.638399 C-7.23460169,175.101628 2.72581443,224.490019 27.5737545,263.571029 L27.5737545,263.571029 C52.4216945,302.651543 91.0707216,331.850399 133.630223,350.273878 L133.630223,350.273878 L129.404139,348.918128 C161.9409,360.793125 197.629275,358.625715 232.231213,360.376851 L232.231213,360.376851 C274.12908,362.497511 315.537826,370.574816 357.416247,373.049582 L357.416247,373.049582 C399.295168,375.523851 442.873297,371.973338 479.952251,352.398516 L479.952251,352.398516 C491.732037,346.179274 502.823764,338.290957 511.177211,327.931854 L511.177211,327.931854 C519.119816,318.081032 524.362534,306.257261 527.583453,294.030644 L527.583453,294.030644 C532.706508,274.58513 532.823179,253.848521 527.919505,234.346311 L527.919505,234.346311 C519.482294,200.793737 496.439265,169.693051 500.273455,135.313896 L500.273455,135.313896 C502.814789,112.522277 517.157848,91.7946197 516.924007,68.864242 L516.924007,68.864242 C516.711108,47.9635106 503.796022,28.4916383 486.381125,16.8663059 L486.381125,16.8663059 C468.965728,5.24047606 447.607948,0.683843085 426.659513,0.156164894 L426.659513,0.156164894 C425.221068,0.119859043 423.783621,0.101954787 422.344679,0.101954787 L422.344679,0.101954787 C394.087351,0.101954787 365.846478,7.0776516 340.870898,20.266125 L340.870898,20.266125 Z" id="path-41"></path>
        <path d="M340.870898,20.266125 C320.923142,30.8002926 302.770324,45.3151729 281.103415,51.6244335 L281.103415,51.6244335 C246.421702,61.7234282 209.725668,49.1730426 175.139685,38.7502793 L175.139685,38.7502793 C140.554201,28.327516 101.216615,20.4227872 69.8495558,38.3076463 L69.8495558,38.3076463 C54.896716,46.8335532 43.5177994,60.4069681 33.70397,74.5244734 L33.70397,74.5244734 C21.7097882,91.7801968 11.4671678,110.464282 5.63012559,130.638399 L5.63012559,130.638399 C-7.23460169,175.101628 2.72581443,224.490019 27.5737545,263.571029 L27.5737545,263.571029 C52.4216945,302.651543 91.0707216,331.850399 133.630223,350.273878 L133.630223,350.273878 L129.404139,348.918128 C161.9409,360.793125 197.629275,358.625715 232.231213,360.376851 L232.231213,360.376851 C274.12908,362.497511 315.537826,370.574816 357.416247,373.049582 L357.416247,373.049582 C399.295168,375.523851 442.873297,371.973338 479.952251,352.398516 L479.952251,352.398516 C491.732037,346.179274 502.823764,338.290957 511.177211,327.931854 L511.177211,327.931854 C519.119816,318.081032 524.362534,306.257261 527.583453,294.030644 L527.583453,294.030644 C532.706508,274.58513 532.823179,253.848521 527.919505,234.346311 L527.919505,234.346311 C519.482294,200.793737 496.439265,169.693051 500.273455,135.313896 L500.273455,135.313896 C502.814789,112.522277 517.157848,91.7946197 516.924007,68.864242 L516.924007,68.864242 C516.711108,47.9635106 503.796022,28.4916383 486.381125,16.8663059 L486.381125,16.8663059 C468.965728,5.24047606 447.607948,0.683843085 426.659513,0.156164894 L426.659513,0.156164894 C425.221068,0.119859043 423.783621,0.101954787 422.344679,0.101954787 L422.344679,0.101954787 C394.087351,0.101954787 365.846478,7.0776516 340.870898,20.266125" id="path-43"></path>
        <path d="M340.870898,20.266125 C320.923142,30.8002926 302.770324,45.3151729 281.103415,51.6244335 L281.103415,51.6244335 C246.421702,61.7234282 209.725668,49.1730426 175.139685,38.7502793 L175.139685,38.7502793 C140.554201,28.327516 101.216615,20.4227872 69.8495558,38.3076463 L69.8495558,38.3076463 C54.896716,46.8335532 43.5177994,60.4069681 33.70397,74.5244734 L33.70397,74.5244734 C21.7097882,91.7801968 11.4671678,110.464282 5.63012559,130.638399 L5.63012559,130.638399 C-7.23460169,175.101628 2.72581443,224.490019 27.5737545,263.571029 L27.5737545,263.571029 C52.4216945,302.651543 91.0707216,331.850399 133.630223,350.273878 L133.630223,350.273878 L129.404139,348.918128 C161.9409,360.793125 197.629275,358.625715 232.231213,360.376851 L232.231213,360.376851 C274.12908,362.497511 315.537826,370.574816 357.416247,373.049582 L357.416247,373.049582 C399.295168,375.523851 442.873297,371.973338 479.952251,352.398516 L479.952251,352.398516 C491.732037,346.179274 502.823764,338.290957 511.177211,327.931854 L511.177211,327.931854 C519.119816,318.081032 524.362534,306.257261 527.583453,294.030644 L527.583453,294.030644 C532.706508,274.58513 532.823179,253.848521 527.919505,234.346311 L527.919505,234.346311 C519.482294,200.793737 496.439265,169.693051 500.273455,135.313896 L500.273455,135.313896 C502.814789,112.522277 517.157848,91.7946197 516.924007,68.864242 L516.924007,68.864242 C516.711108,47.9635106 503.796022,28.4916383 486.381125,16.8663059 L486.381125,16.8663059 C468.965728,5.24047606 447.607948,0.683843085 426.659513,0.156164894 L426.659513,0.156164894 C425.221068,0.119859043 423.783621,0.101954787 422.344679,0.101954787 L422.344679,0.101954787 C394.087351,0.101954787 365.846478,7.0776516 340.870898,20.266125" id="path-45"></path>
        <path d="M340.870898,20.266125 C320.923142,30.8002926 302.770324,45.3151729 281.103415,51.6244335 L281.103415,51.6244335 C246.421702,61.7234282 209.725668,49.1730426 175.139685,38.7502793 L175.139685,38.7502793 C140.554201,28.327516 101.216615,20.4227872 69.8495558,38.3076463 L69.8495558,38.3076463 C54.896716,46.8335532 43.5177994,60.4069681 33.70397,74.5244734 L33.70397,74.5244734 C21.7097882,91.7801968 11.4671678,110.464282 5.63012559,130.638399 L5.63012559,130.638399 C-7.23460169,175.101628 2.72581443,224.490019 27.5737545,263.571029 L27.5737545,263.571029 C52.4216945,302.651543 91.0707216,331.850399 133.630223,350.273878 L133.630223,350.273878 L129.404139,348.918128 C161.9409,360.793125 197.629275,358.625715 232.231213,360.376851 L232.231213,360.376851 C274.12908,362.497511 315.537826,370.574816 357.416247,373.049582 L357.416247,373.049582 C399.295168,375.523851 442.873297,371.973338 479.952251,352.398516 L479.952251,352.398516 C491.732037,346.179274 502.823764,338.290957 511.177211,327.931854 L511.177211,327.931854 C519.119816,318.081032 524.362534,306.257261 527.583453,294.030644 L527.583453,294.030644 C532.706508,274.58513 532.823179,253.848521 527.919505,234.346311 L527.919505,234.346311 C519.482294,200.793737 496.439265,169.693051 500.273455,135.313896 L500.273455,135.313896 C502.814789,112.522277 517.157848,91.7946197 516.924007,68.864242 L516.924007,68.864242 C516.711108,47.9635106 503.796022,28.4916383 486.381125,16.8663059 L486.381125,16.8663059 C468.965728,5.24047606 447.607948,0.683843085 426.659513,0.156164894 L426.659513,0.156164894 C425.221068,0.119859043 423.783621,0.101954787 422.344679,0.101954787 L422.344679,0.101954787 C394.087351,0.101954787 365.846478,7.0776516 340.870898,20.266125" id="path-47"></path>
        <path d="M340.870898,20.266125 C320.923142,30.8002926 302.770324,45.3151729 281.103415,51.6244335 L281.103415,51.6244335 C246.421702,61.7234282 209.725668,49.1730426 175.139685,38.7502793 L175.139685,38.7502793 C140.554201,28.327516 101.216615,20.4227872 69.8495558,38.3076463 L69.8495558,38.3076463 C54.896716,46.8335532 43.5177994,60.4069681 33.70397,74.5244734 L33.70397,74.5244734 C21.7097882,91.7801968 11.4671678,110.464282 5.63012559,130.638399 L5.63012559,130.638399 C-7.23460169,175.101628 2.72581443,224.490019 27.5737545,263.571029 L27.5737545,263.571029 C52.4216945,302.651543 91.0707216,331.850399 133.630223,350.273878 L133.630223,350.273878 L129.404139,348.918128 C161.9409,360.793125 197.629275,358.625715 232.231213,360.376851 L232.231213,360.376851 C274.12908,362.497511 315.537826,370.574816 357.416247,373.049582 L357.416247,373.049582 C399.295168,375.523851 442.873297,371.973338 479.952251,352.398516 L479.952251,352.398516 C491.732037,346.179274 502.823764,338.290957 511.177211,327.931854 L511.177211,327.931854 C519.119816,318.081032 524.362534,306.257261 527.583453,294.030644 L527.583453,294.030644 C532.706508,274.58513 532.823179,253.848521 527.919505,234.346311 L527.919505,234.346311 C519.482294,200.793737 496.439265,169.693051 500.273455,135.313896 L500.273455,135.313896 C502.814789,112.522277 517.157848,91.7946197 516.924007,68.864242 L516.924007,68.864242 C516.711108,47.9635106 503.796022,28.4916383 486.381125,16.8663059 L486.381125,16.8663059 C468.965728,5.24047606 447.607948,0.683843085 426.659513,0.156164894 L426.659513,0.156164894 C425.221068,0.119859043 423.783621,0.101954787 422.344679,0.101954787 L422.344679,0.101954787 C394.087351,0.101954787 365.846478,7.0776516 340.870898,20.266125" id="path-49"></path>
        <path d="M340.870898,20.266125 C320.923142,30.8002926 302.770324,45.3151729 281.103415,51.6244335 L281.103415,51.6244335 C246.421702,61.7234282 209.725668,49.1730426 175.139685,38.7502793 L175.139685,38.7502793 C140.554201,28.327516 101.216615,20.4227872 69.8495558,38.3076463 L69.8495558,38.3076463 C54.896716,46.8335532 43.5177994,60.4069681 33.70397,74.5244734 L33.70397,74.5244734 C21.7097882,91.7801968 11.4671678,110.464282 5.63012559,130.638399 L5.63012559,130.638399 C-7.23460169,175.101628 2.72581443,224.490019 27.5737545,263.571029 L27.5737545,263.571029 C52.4216945,302.651543 91.0707216,331.850399 133.630223,350.273878 L133.630223,350.273878 L129.404139,348.918128 C161.9409,360.793125 197.629275,358.625715 232.231213,360.376851 L232.231213,360.376851 C274.12908,362.497511 315.537826,370.574816 357.416247,373.049582 L357.416247,373.049582 C399.295168,375.523851 442.873297,371.973338 479.952251,352.398516 L479.952251,352.398516 C491.732037,346.179274 502.823764,338.290957 511.177211,327.931854 L511.177211,327.931854 C519.119816,318.081032 524.362534,306.257261 527.583453,294.030644 L527.583453,294.030644 C532.706508,274.58513 532.823179,253.848521 527.919505,234.346311 L527.919505,234.346311 C519.482294,200.793737 496.439265,169.693051 500.273455,135.313896 L500.273455,135.313896 C502.814789,112.522277 517.157848,91.7946197 516.924007,68.864242 L516.924007,68.864242 C516.711108,47.9635106 503.796022,28.4916383 486.381125,16.8663059 L486.381125,16.8663059 C468.965728,5.24047606 447.607948,0.683843085 426.659513,0.156164894 L426.659513,0.156164894 C425.221068,0.119859043 423.783621,0.101954787 422.344679,0.101954787 L422.344679,0.101954787 C394.087351,0.101954787 365.846478,7.0776516 340.870898,20.266125" id="path-51"></path>
        <path d="M340.870898,20.266125 C320.923142,30.8002926 302.770324,45.3151729 281.103415,51.6244335 L281.103415,51.6244335 C246.421702,61.7234282 209.725668,49.1730426 175.139685,38.7502793 L175.139685,38.7502793 C140.554201,28.327516 101.216615,20.4227872 69.8495558,38.3076463 L69.8495558,38.3076463 C54.896716,46.8335532 43.5177994,60.4069681 33.70397,74.5244734 L33.70397,74.5244734 C21.7097882,91.7801968 11.4671678,110.464282 5.63012559,130.638399 L5.63012559,130.638399 C-7.23460169,175.101628 2.72581443,224.490019 27.5737545,263.571029 L27.5737545,263.571029 C52.4216945,302.651543 91.0707216,331.850399 133.630223,350.273878 L133.630223,350.273878 L129.404139,348.918128 C161.9409,360.793125 197.629275,358.625715 232.231213,360.376851 L232.231213,360.376851 C274.12908,362.497511 315.537826,370.574816 357.416247,373.049582 L357.416247,373.049582 C399.295168,375.523851 442.873297,371.973338 479.952251,352.398516 L479.952251,352.398516 C491.732037,346.179274 502.823764,338.290957 511.177211,327.931854 L511.177211,327.931854 C519.119816,318.081032 524.362534,306.257261 527.583453,294.030644 L527.583453,294.030644 C532.706508,274.58513 532.823179,253.848521 527.919505,234.346311 L527.919505,234.346311 C519.482294,200.793737 496.439265,169.693051 500.273455,135.313896 L500.273455,135.313896 C502.814789,112.522277 517.157848,91.7946197 516.924007,68.864242 L516.924007,68.864242 C516.711108,47.9635106 503.796022,28.4916383 486.381125,16.8663059 L486.381125,16.8663059 C468.965728,5.24047606 447.607948,0.683843085 426.659513,0.156164894 L426.659513,0.156164894 C425.221068,0.119859043 423.783621,0.101954787 422.344679,0.101954787 L422.344679,0.101954787 C394.087351,0.101954787 365.846478,7.0776516 340.870898,20.266125" id="path-53"></path>
        <path d="M340.870898,20.266125 C320.923142,30.8002926 302.770324,45.3151729 281.103415,51.6244335 L281.103415,51.6244335 C246.421702,61.7234282 209.725668,49.1730426 175.139685,38.7502793 L175.139685,38.7502793 C140.554201,28.327516 101.216615,20.4227872 69.8495558,38.3076463 L69.8495558,38.3076463 C54.896716,46.8335532 43.5177994,60.4069681 33.70397,74.5244734 L33.70397,74.5244734 C21.7097882,91.7801968 11.4671678,110.464282 5.63012559,130.638399 L5.63012559,130.638399 C-7.23460169,175.101628 2.72581443,224.490019 27.5737545,263.571029 L27.5737545,263.571029 C52.4216945,302.651543 91.0707216,331.850399 133.630223,350.273878 L133.630223,350.273878 L129.404139,348.918128 C161.9409,360.793125 197.629275,358.625715 232.231213,360.376851 L232.231213,360.376851 C274.12908,362.497511 315.537826,370.574816 357.416247,373.049582 L357.416247,373.049582 C399.295168,375.523851 442.873297,371.973338 479.952251,352.398516 L479.952251,352.398516 C491.732037,346.179274 502.823764,338.290957 511.177211,327.931854 L511.177211,327.931854 C519.119816,318.081032 524.362534,306.257261 527.583453,294.030644 L527.583453,294.030644 C532.706508,274.58513 532.823179,253.848521 527.919505,234.346311 L527.919505,234.346311 C519.482294,200.793737 496.439265,169.693051 500.273455,135.313896 L500.273455,135.313896 C502.814789,112.522277 517.157848,91.7946197 516.924007,68.864242 L516.924007,68.864242 C516.711108,47.9635106 503.796022,28.4916383 486.381125,16.8663059 L486.381125,16.8663059 C468.965728,5.24047606 447.607948,0.683843085 426.659513,0.156164894 L426.659513,0.156164894 C425.221068,0.119859043 423.783621,0.101954787 422.344679,0.101954787 L422.344679,0.101954787 C394.087351,0.101954787 365.846478,7.0776516 340.870898,20.266125" id="path-55"></path>
    </defs>
    <g id="Page-1" stroke="none" stroke-width="1" fill="none" fill-rule="evenodd">
        <g id="Desktop" transform="translate(-31.000000, -190.000000)">
            <g id="illustration" transform="translate(31.000000, 190.000000)">
                <g id="Group-18">
                    <path d="M133.629924,356.271935 C91.0709211,337.846908 52.4218939,308.645599 27.5739539,269.561804 C2.72601387,230.47751 -7.23440225,181.084474 5.63032502,136.618008 C11.4673672,116.442196 21.709489,97.7565419 33.7041694,80.4998665 C43.5179989,66.380678 54.8969155,52.806123 69.8497552,44.2795 C101.216316,26.3936361 140.5544,34.2985314 175.139885,44.7221702 C209.725369,55.1463063 246.421901,67.6967513 281.103615,57.5969084 C302.770025,51.2876152 320.923341,36.7715157 340.871097,26.2364634 C367.118591,12.3749188 396.970422,5.37675131 426.659712,6.12481414 C447.608147,6.65303403 468.965928,11.2100497 486.380825,22.8363586 C503.795723,34.4626675 516.710809,53.9361754 516.924207,74.8386623 C517.158048,97.770966 502.814989,118.500364 500.273155,141.293401 C496.439465,175.67594 519.482494,206.779238 527.919705,240.334134 C532.823378,259.838479 532.706209,280.57683 527.583154,300.024474 C524.362235,312.25162 519.119517,324.076385 511.17741,333.928034 C502.823963,344.288008 491.732237,352.176987 479.952451,358.396254 C442.872998,377.973217 399.294869,381.524029 357.416447,379.049055 C315.538025,376.574579 274.128781,368.496594 232.230914,366.375757 C197.628975,364.624474 161.940601,366.792065 129.40384,354.916071" id="Fill-1" fill="#DCEFEF"></path>
                    <path d="M105.297209,140.20672 C105.297209,148.139469 98.8508851,154.570123 90.8988064,154.570123 C82.9467276,154.570123 76.4999048,148.139469 76.4999048,140.20672 C76.4999048,132.273971 82.9467276,125.843317 90.8988064,125.843317 C98.8508851,125.843317 105.297209,132.273971 105.297209,140.20672" id="Fill-3" fill="#053B4C"></path>
                    <path d="M133.644981,154.570322 C133.644981,157.622259 131.164475,160.096238 128.1056,160.096238 C125.046226,160.096238 122.566219,157.622259 122.566219,154.570322 C122.566219,151.518385 125.046226,149.044406 128.1056,149.044406 C131.164475,149.044406 133.644981,151.518385 133.644981,154.570322" id="Fill-5" fill="#053B4C"></path>
                    <path d="M387.609616,89.7209843 C387.609616,97.653733 381.162793,104.084387 373.211213,104.084387 C365.259134,104.084387 358.812311,97.653733 358.812311,89.7209843 C358.812311,81.7882356 365.259134,75.3575812 373.211213,75.3575812 C381.162793,75.3575812 387.609616,81.7882356 387.609616,89.7209843" id="Fill-7" fill="#053B4C"></path>
                    <path d="M405.468412,115.353626 C405.468412,119.620668 402.000689,123.079961 397.72325,123.079961 C393.445312,123.079961 389.978088,119.620668 389.978088,115.353626 C389.978088,111.086584 393.445312,107.627291 397.72325,107.627291 C402.000689,107.627291 405.468412,111.086584 405.468412,115.353626" id="Fill-9" fill="#81BBB7"></path>
                    <g id="Group-13" transform="translate(406.852858, 0.000000)">
                        <mask id="mask-2" fill="white">
                            <use xlink:href="#path-1"></use>
                        </mask>
                        <g id="Clip-12"></g>
                        <path d="M2.77572371,75.3573325 C3.5405672,73.0992173 4.0635925,68.2442696 5.74933946,66.5760497 C8.44773121,63.5718613 10.4495869,66.7625681 13.9741492,67.1117304 C17.1621604,67.6270183 21.6958774,67.4773063 23.7216656,64.8058665 C26.7600986,60.7979607 23.6603385,59.1944005 29.1219393,57.9603953 C33.7439074,56.722411 34.9200911,56.559767 37.5367134,52.9691649 C39.9020442,49.2940079 42.1731408,48.3818089 45.2893545,45.7984058 C49.0786703,42.8822539 48.6673301,40.7872801 49.7752064,36.687856 C51.5591764,31.4190864 54.4929046,32.6869136 57.8638999,29.3509712 C59.6349065,27.4320707 59.8961698,25.0043482 61.1640948,22.9153429 C63.1041248,20.4945838 65.7077837,20.2538508 67.7300817,18.4195052 C71.2676075,15.4187984 72.7225053,8.64146859 73.9156412,4.29186126 C67.2643948,9.03837958 63.2671651,0.982777487 56.805883,0.202882199 C52.5269477,-0.399945026 49.7437949,2.8544267 45.8791914,3.50898168 C42.2663779,4.24809162 38.9153263,2.55997644 35.2142617,4.38735864 C31.5984566,5.96406021 29.9057293,9.30696597 27.3773582,11.8092958 C24.5119374,14.4777513 21.405197,14.5493743 18.7073038,17.5530654 C16.5154838,19.8892696 15.9136806,23.320212 13.5548315,25.3206832 C10.4381192,27.9045838 9.01064405,27.9821754 7.56621668,32.2477251 C6.29230853,36.0114162 4.1064716,36.6724372 1.91165998,39.8457356 C-0.369408435,43.270212 0.623292596,46.9587984 1.27944255,50.8140079 C3.26135445,59.0287723 3.74349503,64.2229346 1.02466092,72.251678 L2.77572371,75.3573325 Z" id="Fill-11" fill="#81BBB7" mask="url(#mask-2)"></path>
                    </g>
                    <path d="M140.748004,113.994579 C141.91621,110.693453 141.331858,107.198348 142.305612,103.89772 C146.587539,106.421935 153.984184,102.927327 157.487307,99.8201806 C161.38033,96.5195524 163.715745,89.723322 161.769234,84.8693691 C160.991427,86.0342382 155.735745,89.9177984 154.568038,86.6171702 C153.984184,84.8693691 160.407074,83.5100236 161.574782,82.150678 C163.910696,79.2385052 167.413819,70.1125366 167.024416,66.6174319 C164.299599,67.0053901 162.353088,68.7531911 159.433819,68.9476675 C154.956941,69.3356257 155.735745,68.1707565 159.239367,66.8119084 C165.078403,64.2871963 170.917939,58.6568298 169.36033,52.0545785 C167.219367,53.996856 162.74249,53.4139241 165.272855,49.9188194 C169.944683,51.0841859 176.562025,43.8995 176.756975,39.2395262 C175.589267,39.6279817 174.22661,39.8224581 172.863952,39.4340026 C172.085646,36.3273534 176.367573,37.686699 177.535281,35.7444215 C178.508536,33.9971178 177.146377,31.4729031 178.314085,29.5316204 C180.455048,26.0365157 188.435547,22.1529555 186.683985,17.6869607 C180.455048,20.0171963 174.616012,22.9293691 168.387573,25.0651283 C165.078403,26.2299974 166.635513,25.0651283 167.219367,27.2013848 C167.803719,28.7547094 169.165879,29.9195785 168.192623,31.8613586 C165.856709,36.3273534 164.105148,30.1135576 165.272855,27.7838194 C156.903453,31.4729031 158.071161,36.7153115 159.433819,44.0939764 C156.903453,42.9291073 155.345845,39.2395262 155.735745,36.5213325 C155.151892,38.6570916 151.842722,38.6570916 150.090662,39.8224581 C147.365845,41.1813063 147.365845,42.3466728 147.560795,45.2588455 C147.755247,49.9188194 149.701759,53.6079031 150.285612,57.8799188 C144.835479,59.821699 144.641526,51.2781649 146.198137,48.3654948 C145.224881,52.0545785 141.526808,52.443034 141.331858,56.9090288 C141.137406,60.015678 141.137406,63.7047618 141.91621,66.8119084 C142.500064,69.7240812 145.419333,75.5494215 139.580297,73.2191859 C137.049931,72.2482958 134.714017,65.8405209 138.41209,65.0641073 C138.607041,65.6465419 138.41209,64.4816728 138.41209,65.0641073 C131.79425,61.7629817 127.317372,72.4422749 129.069432,78.0731387 C130.042688,81.3742644 134.324615,84.4809136 134.130662,88.1699974 C133.935712,92.2475366 129.069432,89.9177984 128.680529,86.8106518 C125.176908,91.4706257 132.378602,97.8784005 135.882223,100.597092 C140.359101,103.89772 138.801991,110.111018 138.801991,115.353427" id="Fill-14" fill="#81BBB7"></path>
                    <path d="M140.647737,110.527725 C139.961173,108.587935 140.304704,106.533249 139.732318,104.593458 C137.215913,106.077149 132.868172,104.022961 130.809476,102.197071 C128.521428,100.25728 127.148798,96.2628037 128.293071,93.4098194 C128.750282,94.0942173 131.839073,96.3767042 132.525637,94.4369136 C132.868172,93.4098194 129.093315,92.6110236 128.406751,91.8122277 C127.034121,90.1002382 124.974927,84.7364686 125.203782,82.6822801 C126.805266,82.9105785 127.94954,83.9376728 129.665701,84.0520707 C132.296783,84.2798717 131.839073,83.5954738 129.779879,82.796678 C126.347557,81.3129869 122.916232,78.0034058 123.831152,74.1233272 C125.089604,75.2648194 127.720685,74.922123 126.233877,72.8679346 C123.488119,73.5528298 119.598087,69.330055 119.483909,66.5914686 C120.170473,66.819767 120.971216,66.9336675 121.772457,66.7058665 C122.229667,64.8794791 119.712764,65.6787723 119.026698,64.5372801 C118.454312,63.5101859 119.255553,62.0264948 118.568989,60.8855 C117.310537,58.8313115 112.619763,56.5488246 113.649859,53.9241387 C117.310537,55.2934319 120.742361,57.0054215 124.40304,58.2608141 C126.347557,58.945212 125.432637,58.2608141 125.089604,59.5157094 C124.746072,60.4289031 123.94533,61.113301 124.517218,62.2547932 C125.890346,64.8794791 126.919943,61.227699 126.233877,59.8584058 C131.152509,62.0264948 130.465945,65.1077775 129.665701,69.4444529 C131.152509,68.7595576 132.067928,66.5914686 131.839073,64.993877 C132.182106,66.2492696 134.127122,66.2492696 135.156719,66.9336675 C136.758204,67.7324634 136.758204,68.4173586 136.644025,70.1293482 C136.529349,72.8679346 135.385075,75.0365209 135.042541,77.5468089 C138.24551,78.688301 138.359688,73.6667304 137.444269,71.9552382 C138.016655,74.1233272 140.190027,74.3516257 140.304704,76.9763115 C140.418882,78.8022016 140.418882,80.970788 139.961173,82.796678 C139.618638,84.5081702 137.901979,87.9321492 141.334301,86.5623586 C142.821109,85.9918613 144.193739,82.2256832 142.020367,81.7695838 C141.90569,82.1117827 141.90569,82.4544791 141.90569,82.796678 C145.795722,80.8563901 148.54148,86.1057618 147.511883,89.4153429 C146.939497,91.3556309 144.422593,93.1815209 144.53727,95.3496099 C144.651448,97.7464948 147.511883,96.3767042 147.740738,94.5508141 C149.799433,97.2898979 145.566867,101.055579 143.507673,102.65317 C140.876592,104.593458 141.791512,108.245238 141.791512,111.326521" id="Fill-16" fill="#81BBB7"></path>
                </g>
                <g id="Group-40" transform="translate(43.000000, 157.000000)">
                    <g id="Group-21">
                        <mask id="mask-4" fill="white">
                            <use xlink:href="#path-3"></use>
                        </mask>
                        <g id="Clip-20"></g>
                        <path d="M91.611816,166.375007 C96.9487802,169.269946 86.5505326,146.977818 83.0851136,139.595324 C79.6182017,131.777891 74.4588874,112.223085 74.9958183,114.262611 C75.7740945,117.216905 88.048366,148.526041 95.2155731,165.360981 C97.4603326,147.478097 88.9356207,141.022842 85.9026326,131.468645 C82.0032898,119.743742 79.3280898,106.879618 82.3610779,94.7202749 C80.8294064,109.191479 85.567735,124.974983 90.3344279,137.568268 C90.3344279,131.488596 87.678635,122.027672 88.978416,116.38244 C90.7111255,110.303268 94.4656612,101.472307 94.4656612,94.9586934 C94.8990874,101.038365 90.7673564,111.605591 90.3344279,117.685263 C89.9010017,123.764934 92.3258993,130.764363 92.3258993,136.844034 C93.1927517,129.027599 95.4773207,123.764934 98.076385,116.38244 C100.675947,111.171151 101.281549,91.969983 106.047247,88.496455 C103.447685,93.2728054 104.746968,99.9320633 102.58133,105.143353 C100.414199,110.789083 96.9930683,123.330993 95.2608564,129.410664 C92.6607969,139.398803 93.4828636,143.068852 97.3822064,153.057489 C98.2485612,146.977818 100.558011,132.067185 105.756637,129.027599 C101.189987,139.30553 97.0920945,157.254253 97.5250231,172.453681 C97.9584493,182.007878 99.6911588,191.561078 100.124087,201.549715 C100.124087,205.892124 102.056342,215.44682 101.189987,219.790226 L95.791816,219.790226 C95.3583898,207.195445 94.9249636,191.126637 91.8924731,178.967793 C88.8599826,167.676832 80.8856374,147.417745 81.0612969,146.397732 C82.6516874,143.793085 86.2738564,163.480068 91.611816,166.375007" id="Fill-19" fill="#053B4C" mask="url(#mask-4)"></path>
                    </g>
                    <g id="Group-24">
                        <mask id="mask-6" fill="white">
                            <use xlink:href="#path-5"></use>
                        </mask>
                        <g id="Clip-23"></g>
                        <path d="M105.323062,86.9817494 C109.2234,79.5992555 109.2234,73.5195839 109.2234,65.2682092 C109.2234,56.1489513 113.9886,51.3721022 115.721807,42.6867859 C117.454517,36.172674 114.854955,29.2246204 114.422026,22.2760681 C113.9886,29.6590608 104.023779,37.9099367 98.8246548,42.6867859 C92.32575,49.6348394 87.1271238,54.4121873 85.8268452,64.400326 C84.5270643,71.7823212 85.3939167,79.5992555 87.1271238,86.547309 C87.9939762,90.4557762 87.9939762,93.9298029 88.4269048,98.2727105 C88.8598333,102.615618 90.5930405,104.786822 91.4593952,108.69529 C91.4593952,108.69529 97.7398452,87.1643041 105.323062,86.9817494" id="Fill-22" fill="#81BBB7" mask="url(#mask-6)"></path>
                    </g>
                    <g id="Group-27">
                        <mask id="mask-8" fill="white">
                            <use xlink:href="#path-7"></use>
                        </mask>
                        <g id="Clip-26"></g>
                        <path d="M83.66061,103.840032 C77.8787743,89.7613698 65.4646719,82.9953723 52.4663648,74.7444964 C46.4018814,70.8360292 20.839191,49.5564307 23.4387529,41.7399951 C29.504729,47.8196667 36.4365624,53.4653966 45.535029,54.768219 C53.7666433,56.504983 62.8646124,56.504983 70.2298719,62.1502141 C73.2623624,64.7558589 74.1292148,69.5332068 78.0285576,72.5727932 C81.9279005,75.6128783 85.3938171,75.178438 87.9938767,79.9552871 C87.9938767,79.9552871 88.952291,95.0140584 83.66061,103.840032" id="Fill-25" fill="#81BBB7" mask="url(#mask-8)"></path>
                    </g>
                    <g id="Group-30">
                        <mask id="mask-10" fill="white">
                            <use xlink:href="#path-9"></use>
                        </mask>
                        <g id="Clip-29"></g>
                        <path d="M78.0283586,120.776523 C77.0296371,114.764187 80.6284181,106.011036 74.5624419,102.103068 C71.5294538,100.365805 68.0640348,102.103068 64.5981181,101.234187 C61.56513,99.931365 58.5321419,96.457837 55.500149,95.1545158 C45.53483,90.8121071 31.2372395,95.5889562 19.9731348,95.1545158 C25.6051871,102.53701 40.7691324,99.931365 49.0007467,101.668628 C54.632799,102.97145 59.3989943,104.708713 63.7312657,108.616681 C63.7312657,108.616681 78.7578681,125.155842 78.0283586,120.776523" id="Fill-28" fill="#81BBB7" mask="url(#mask-10)"></path>
                    </g>
                    <g id="Group-33">
                        <mask id="mask-12" fill="white">
                            <use xlink:href="#path-11"></use>
                        </mask>
                        <g id="Clip-32"></g>
                        <path d="M102.723699,102.102819 C104.286223,88.878573 107.489894,87.3378309 111.822166,85.1666265 C114.422225,83.8643029 117.888142,85.1666265 120.487206,84.7321861 C124.386549,83.8643029 126.552685,82.1270401 129.585673,79.955337 C139.983423,73.8756655 155.581292,64.3219672 153.847587,50.4253613 C149.948742,49.1225389 141.283204,55.6361521 136.518004,56.9394732 C130.452525,58.2417968 123.086768,56.9394732 117.888142,60.4135 C112.68852,64.7559088 110.522385,72.5728431 105.323261,77.7841326 C105.323261,77.7841326 95.3858086,85.7970888 102.723699,102.102819" id="Fill-31" fill="#81BBB7" mask="url(#mask-12)"></path>
                    </g>
                    <g id="Group-36">
                        <mask id="mask-14" fill="white">
                            <use xlink:href="#path-13"></use>
                        </mask>
                        <g id="Clip-35"></g>
                        <path d="M103.791789,134.584645 C110.299153,124.901762 111.607891,118.217564 121.67771,117.27636 C129.986953,116.629937 144.808536,116.067309 144.870739,104.310484 C136.321146,107.986019 126.333931,102.399645 117.318567,106.474706 C114.590122,107.999487 109.131241,110.236032 106.801886,113.043185 C104.472034,115.849839 100.438334,125.061871 103.791789,134.584645" id="Fill-34" fill="#81BBB7" mask="url(#mask-14)"></path>
                    </g>
                    <g id="Group-39">
                        <mask id="mask-16" fill="white">
                            <use xlink:href="#path-15"></use>
                        </mask>
                        <g id="Clip-38"></g>
                        <path d="M79.1091374,147.863308 C83.4448921,150.886933 83.7618755,139.923673 83.3513398,136.880096 C81.9993088,130.49467 80.2685898,132.339172 75.989066,129.943016 C69.5712731,126.348782 58.1344945,130.496665 54.0838755,132.09776 C53.7872945,135.178247 61.4774993,136.23467 68.8323088,136.487554 C76.1871183,136.740936 75.6029136,146.097614 79.1091374,147.863308" id="Fill-37" fill="#81BBB7" mask="url(#mask-16)"></path>
                    </g>
                </g>
                <g id="Group-77" transform="translate(246.000000, 134.000000)">
                    <g id="Group-43">
                        <mask id="mask-18" fill="white">
                            <use xlink:href="#path-17"></use>
                        </mask>
                        <g id="Clip-42"></g>
                        <path d="M224.214456,137.276515 C225.567672,135.24577 228.274104,133.214528 230.303678,131.86103 C239.776188,142.015252 216.09566,146.754487 209.329581,148.785232 C199.857569,152.84722 185.649053,159.616702 174.14647,155.555212 C157.908379,149.462479 184.971698,144.723244 191.737777,140.661256 C197.826999,137.276515 219.477953,118.32107 220.831666,136.599766" id="Fill-41" fill="#81BBB7" mask="url(#mask-18)"></path>
                    </g>
                    <g id="Group-46">
                        <mask id="mask-20" fill="white">
                            <use xlink:href="#path-19"></use>
                        </mask>
                        <g id="Clip-45"></g>
                        <path d="M220.15471,176.541452 C208.653123,178.572695 176.852802,173.83346 174.823227,187.372921 C172.793653,198.881638 187.002169,196.850893 195.797822,195.496897 C205.269835,194.142901 212.712272,188.050168 217.448776,178.572695" id="Fill-44" fill="#81BBB7" mask="url(#mask-20)"></path>
                    </g>
                    <g id="Group-49">
                        <mask id="mask-22" fill="white">
                            <use xlink:href="#path-21"></use>
                        </mask>
                        <g id="Clip-48"></g>
                        <path d="M299.316386,35.0521615 C281.048222,33.6981656 262.103202,48.5916231 248.571543,60.1003397 C233.009811,72.9630522 217.448577,76.3482911 199.180414,83.1177729 C194.444407,85.1490158 178.883173,89.2105057 175.499885,85.1490158 C170.087022,79.056283 177.52946,65.5163235 180.235891,60.7775866 C186.325611,51.9768619 193.091192,46.5608781 201.886845,41.1448943 C205.269635,39.7913964 210.006139,38.4369024 212.712073,35.7289105 C215.419002,32.3441696 212.712073,26.2514368 218.801793,24.2206919 C221.508224,23.5434449 223.537799,28.9594287 226.920589,29.6366757 C230.980236,30.3134247 233.009811,28.2821818 237.069956,27.6054328 C243.159178,26.2514368 248.571543,25.5746879 255.337622,24.8974409 C267.516065,24.2206919 284.431511,23.5434449 294.579882,31.6674206" id="Fill-47" fill="#81BBB7" mask="url(#mask-22)"></path>
                    </g>
                    <g id="Group-52">
                        <mask id="mask-24" fill="white">
                            <use xlink:href="#path-23"></use>
                        </mask>
                        <g id="Clip-51"></g>
                        <path d="M218.125085,95.303587 C210.006289,94.6268381 199.85742,94.6268381 192.414982,91.2415992 C183.618831,87.8568583 178.206466,81.0868785 168.733956,79.0561336 C158.585087,77.7021377 148.436218,79.0561336 138.963708,77.0248907 C130.168552,74.3168988 120.695544,70.2554089 112.576748,69.5781619 C111.223532,75.6713927 115.283179,83.1181215 115.960036,89.2108543 C116.636395,98.0115789 116.636395,102.750316 122.049258,110.197045 C126.785264,117.644271 147.083002,136.599717 157.231871,129.152988 C163.997452,125.091 159.938302,118.998267 168.733956,114.259032 C176.176393,110.197045 178.206466,112.905036 186.325262,114.259032 C199.180563,116.290275 214.742295,112.905036 220.15466,99.3655749" id="Fill-50" fill="#81BBB7" mask="url(#mask-24)"></path>
                    </g>
                    <g id="Group-55">
                        <mask id="mask-26" fill="white">
                            <use xlink:href="#path-25"></use>
                        </mask>
                        <g id="Clip-54"></g>
                        <path d="M153.848832,84.4718684 C151.142898,77.0251397 146.406394,72.2864028 139.640316,67.547168 C136.257525,66.1931721 132.197878,65.5164231 129.491944,62.8084312 C126.785015,59.4236903 128.815088,57.3929453 126.785015,54.0077065 C123.402225,46.5609777 118.666218,45.2069818 113.253356,39.114249 C108.517349,33.6982652 107.163636,25.5747874 103.104487,20.1588036 C101.074912,33.6982652 99.0448394,45.2069818 107.84099,56.7156984 C116.636146,66.870419 129.491944,72.9631518 136.934382,83.7951194" id="Fill-53" fill="#81BBB7" mask="url(#mask-26)"></path>
                    </g>
                    <g id="Group-58">
                        <mask id="mask-28" fill="white">
                            <use xlink:href="#path-27"></use>
                        </mask>
                        <g id="Clip-57"></g>
                        <path d="M131.015917,171.19867 C126.279413,174.583411 124.926695,181.353391 120.190191,183.384634 C116.807401,184.738132 104.628459,184.061383 103.9521,180.676642 C102.598885,175.260658 130.339558,161.720699 131.015917,171.875419" id="Fill-56" fill="#81BBB7" mask="url(#mask-28)"></path>
                    </g>
                    <g id="Group-61">
                        <mask id="mask-30" fill="white">
                            <use xlink:href="#path-29"></use>
                        </mask>
                        <g id="Clip-60"></g>
                        <path d="M169.410365,135.922619 C157.908778,140.661356 140.316973,148.785332 129.491745,142.692599 C127.461673,141.338105 124.078882,135.922619 121.372451,133.891376 C118.666019,131.860631 113.929516,130.506635 110.547223,128.47589 C103.781144,124.413902 95.6618499,118.32117 97.6914247,108.843198 C102.427929,89.8877526 122.049308,124.413902 132.197679,127.798643 C140.993332,131.183384 168.734006,126.444647 171.440437,135.922619" id="Fill-59" fill="#81BBB7" mask="url(#mask-30)"></path>
                    </g>
                    <g id="Group-64">
                        <mask id="mask-32" fill="white">
                            <use xlink:href="#path-31"></use>
                        </mask>
                        <g id="Clip-63"></g>
                        <path d="M221.508274,73.6401498 C211.631143,86.6069393 202.938013,100.404352 195.530912,114.851126 C191.847517,122.084223 188.424414,129.448287 185.371591,136.965729 C182.294382,144.471717 179.51479,152.100206 177.077608,159.838251 C174.597625,167.563348 172.451591,175.395012 170.593221,183.295397 C168.702004,191.189806 167.171114,199.168372 165.853234,207.183291 C163.266745,223.225579 161.811503,239.454607 161.291419,255.747874 C160.774818,239.451619 161.692058,223.085648 163.932653,206.895462 C165.029559,198.795389 166.527602,190.750093 168.297383,182.765551 C170.100012,174.78798 172.246046,166.886101 174.707614,159.08332 C177.211486,151.294482 180.023428,143.601753 183.202166,136.062401 C186.405788,128.534502 189.90454,121.129105 193.81936,113.948296 C201.602714,99.568749 210.828371,85.9595709 221.508274,73.6401498" id="Fill-62" fill="#053B4C" mask="url(#mask-32)"></path>
                    </g>
                    <g id="Group-67">
                        <mask id="mask-34" fill="white">
                            <use xlink:href="#path-33"></use>
                        </mask>
                        <g id="Clip-66"></g>
                        <path d="M197.15069,147.431286 C192.148918,155.284363 188.265452,163.711606 185.231542,172.425185 C183.732503,176.789444 182.37232,181.202504 181.188816,185.671338 C179.980428,190.132205 178.873568,194.627432 177.839868,199.147059 L174.679545,212.715901 C173.577164,217.234533 172.489216,221.766112 171.199705,226.248391 C168.67493,235.216436 165.588264,244.095343 161.29122,252.363233 C164.638176,243.676545 167.159965,234.763278 169.32093,225.757387 C170.378518,221.248217 171.417195,216.732075 172.382213,212.191035 C173.380079,207.657962 174.376452,203.117917 175.418612,198.579367 C176.504072,194.051772 177.626857,189.522683 178.92682,185.035921 C180.252663,180.558124 181.680532,176.098253 183.417964,171.750428 C186.833602,163.047306 191.30434,154.68729 197.15069,147.431286" id="Fill-65" fill="#053B4C" mask="url(#mask-34)"></path>
                    </g>
                    <g id="Group-70">
                        <mask id="mask-36" fill="white">
                            <use xlink:href="#path-35"></use>
                        </mask>
                        <g id="Clip-69"></g>
                        <path d="M157.908628,89.8878522 C154.727402,105.135868 152.844147,120.580087 151.905506,136.074103 C151.455596,143.823601 151.18336,151.583557 151.095767,159.349986 C150.992248,167.118407 150.951437,174.889318 151.169922,182.642302 C151.337644,190.404747 151.686523,198.176654 151.929396,205.963002 C152.142406,213.74935 152.320081,221.555617 152.059292,229.364374 C151.835332,237.170144 151.229645,244.979897 150.039174,252.7035 C148.824813,260.418638 147.031641,268.055095 144.376969,275.380816 C146.50409,267.886779 147.960328,260.242354 148.828795,252.53867 C149.726127,244.837476 150.061072,237.083994 150.117808,229.330512 C150.107357,227.390897 150.125274,225.452775 150.091929,223.512662 L149.991396,217.693318 L149.809739,211.870986 L149.57483,206.04716 C149.261286,198.279237 148.892996,190.500856 148.683967,182.702557 C148.511767,174.894796 148.561536,167.096994 148.746178,159.303674 C148.969641,151.509358 149.294631,143.710063 149.976465,135.93467 C151.283396,120.388864 153.724559,104.895844 157.908628,89.8878522" id="Fill-68" fill="#053B4C" mask="url(#mask-36)"></path>
                    </g>
                    <g id="Group-73">
                        <mask id="mask-38" fill="white">
                            <use xlink:href="#path-37"></use>
                        </mask>
                        <g id="Clip-72"></g>
                        <path d="M118.837125,181.353441 C123.596025,185.387542 127.880129,190.006765 131.630712,195.043789 C135.392243,200.072846 138.596364,205.556554 141.039518,211.385858 C143.475704,217.211178 145.138482,223.404502 145.681958,229.709372 C146.248826,236.002291 145.696889,242.402275 143.871367,248.374498 C144.678618,242.188145 144.653733,235.993328 143.753414,229.937445 C142.840653,223.883056 141.104217,217.98802 138.744675,212.346453 C136.387621,206.699409 133.41194,201.310315 130.046071,196.154275 C126.66328,191.005206 122.86492,186.114089 118.837125,181.353441" id="Fill-71" fill="#053B4C" mask="url(#mask-38)"></path>
                    </g>
                    <g id="Group-76">
                        <mask id="mask-40" fill="white">
                            <use xlink:href="#path-39"></use>
                        </mask>
                        <g id="Clip-75"></g>
                        <path d="M191.737827,192.112206 C187.203882,198.15066 183.391586,204.615878 180.313879,211.41474 C178.790951,214.820894 177.380004,218.276846 176.14275,221.80351 C174.879616,225.320214 173.716019,228.878749 172.633546,232.471145 C171.50877,236.050595 170.456158,239.660919 169.365224,243.268753 C168.241443,246.867125 167.148518,250.483923 165.880408,254.048931 C163.400424,261.188409 160.455102,268.228789 156.555711,274.703469 C159.527411,267.76119 161.912335,260.653583 164.031992,253.454348 C165.07017,249.84751 166.114819,246.240174 167.103229,242.607441 C168.124984,238.98417 169.162665,235.357413 170.25758,231.737627 C171.394301,228.131785 172.579796,224.529927 173.939979,220.984838 C175.324549,217.450206 176.811643,213.943959 178.572964,210.570672 C182.037375,203.80368 186.419525,197.476898 191.737827,192.112206" id="Fill-74" fill="#053B4C" mask="url(#mask-40)"></path>
                    </g>
                </g>
                <g id="Group-102" transform="translate(0.000000, 6.000000)">
                    <g id="Group-80">
                        <mask id="mask-42" fill="white">
                            <use xlink:href="#path-41"></use>
                        </mask>
                        <g id="Clip-79"></g>
                        <path d="M330.676392,269.825931 C330.676392,269.825931 343.051998,284.267205 368.143751,376.643215 C331.190442,393.936239 229.698604,390.750774 227.524234,390.750774 C225.351361,390.750774 224.470843,305.654335 224.470843,305.654335 L330.676392,269.825931 Z" id="Fill-78" fill="#EA686A" mask="url(#mask-42)"></path>
                    </g>
                    <g id="Group-83">
                        <mask id="mask-44" fill="white">
                            <use xlink:href="#path-43"></use>
                        </mask>
                        <g id="Clip-82"></g>
                        <path d="M244.176133,77.8403912 C244.176133,77.8403912 261.208111,65.0980322 284.729292,94.8300375 C294.867207,110.808093 290.000928,111.819684 323.255166,134.270128 C323.255166,134.270128 330.181138,139.728936 323.255166,146.608149 C325.080021,136.357963 307.236332,128.203072 303.383695,128.404495 C299.531058,128.60741 328.93216,148.225998 310.074829,173.10396 C291.217997,197.981426 300.545198,195.958742 300.545198,197.17275 C300.545198,198.386261 182.79171,218.462899 182.79171,218.462899 C182.79171,218.462899 198.147414,203.037886 199.972268,159.552428 C203.704246,126.014774 209.025742,115.011615 211.900636,101.482463 C214.774034,87.9533114 234.443076,74.1998593 244.176133,77.8403912" id="Fill-81" fill="#020303" mask="url(#mask-44)"></path>
                    </g>
                    <g id="Group-86">
                        <mask id="mask-46" fill="white">
                            <use xlink:href="#path-45"></use>
                        </mask>
                        <g id="Clip-85"></g>
                        <path d="M437.615572,190.093358 C437.615572,190.093358 445.7272,186.098222 450.59348,188.601337 C450.59348,188.601337 441.468707,189.082265 437.615572,190.093358 M461.568036,190.093358 C461.568036,190.093358 457.892899,188.120906 454.648048,188.601337 C454.648048,188.601337 455.0549,183.014214 445.321345,183.216632 C435.588288,183.419049 415.514387,182.811797 407.200827,185.946534 C398.887766,189.081768 409.633967,180.587193 410.850537,180.385273 C412.067605,180.182855 421.192876,173.306129 415.919744,169.6651 C413.283676,167.036159 402.13162,180.182855 393.209776,183.419049 C384.28843,186.655244 379.829502,202.696462 378.205082,214.162148 C377.19144,229.938284 367.571065,269.585765 363.809172,272.817483 C360.56482,276.053677 349.698458,220.145153 346.979125,212.341385 C339.882136,195.756573 336.162124,187.862786 312.169273,190.292791 C294.056344,185.036898 285.946211,193.329552 273.982443,185.946534 C293.853915,165.215893 289.77342,157.804526 290.000779,144.990549 C289.392992,143.371706 300.138694,101.504595 255.935826,101.504595 C247.21691,100.493502 238.498492,134.068456 225.115725,141.753858 C211.732959,149.439757 214.976812,154.496217 214.976812,154.496217 C214.976812,154.496217 214.976812,158.339166 222.276231,156.720821 C222.276231,156.720821 224.913296,168.654504 228.967864,173.306129 C227.548366,190.093358 236.267283,197.981674 213.322477,205.488034 C192.469772,213.75781 161.8521,216.588672 175.437296,259.467374 C189.022492,302.347071 190.235572,357.028656 214.67267,367.19877 C246.50741,380.44593 285.539856,326.415363 296.895339,317.313039 C308.249825,308.211709 321.430661,296.480443 335.826571,295.874682 C335.826571,295.874682 351.845405,344.045584 372.933446,328.842882 C377.740393,324.834318 384.490361,316.707278 386.112786,288.188286 C386.112786,288.188286 392.196134,288.188286 387.735212,283.334244 C387.735212,283.334244 395.642915,283.535666 395.440486,281.311063 C395.440486,281.311063 396.2512,278.278281 389.154709,277.26669 C389.965922,262.501151 394.632764,223.400744 400.356126,216.11968 C402.524014,211.775411 413.090222,208.077188 423.22016,206.678666 C426.318424,206.250456 434.683339,206.485201 437.524827,204.743018 C444.662702,200.364432 455.662188,202.835717 452.215407,197.374919 C455.729,195.597424 463.976246,199.397105 459.920183,194.341143 C459.920183,194.341143 465.648033,193.329055 461.568036,190.093358" id="Fill-84" fill="#CA9867" mask="url(#mask-46)"></path>
                    </g>
                    <g id="Group-89">
                        <mask id="mask-48" fill="white">
                            <use xlink:href="#path-47"></use>
                        </mask>
                        <g id="Clip-88"></g>
                        <path d="M192.469872,212.64516 C192.469872,212.64516 209.502348,204.150088 214.67277,205.666977 C219.842693,207.183865 246.608226,253.602139 275.807896,247.231208 C275.807896,247.231208 312.609632,241.16266 292.839874,188.980708 C292.839874,188.980708 306.526783,187.46382 312.609632,190.497596 C318.692481,193.531373 329.946749,223.566756 326.600683,239.039514 C325.207113,245.485046 327.825231,259.883548 332.56387,276.922431 C311.291349,278.277684 313.206449,283.738482 295.67837,294.25574 C272.767967,308.777583 239.309306,335.011793 233.631814,331.573181 C226.332395,327.729735 223.188758,286.671796 218.018337,273.322184 C218.018337,273.322184 213.456698,214.464929 192.469872,212.64516" id="Fill-87" fill="#EA686A" mask="url(#mask-48)"></path>
                    </g>
                    <g id="Group-92">
                        <mask id="mask-50" fill="white">
                            <use xlink:href="#path-49"></use>
                        </mask>
                        <g id="Clip-91"></g>
                        <path d="M233.631614,178.969295 C233.631614,178.969295 249.244593,196.161359 262.222002,194.138675 C262.222002,194.138675 245.391955,198.38646 233.631614,178.969295" id="Fill-90" fill="#986734" mask="url(#mask-50)"></path>
                    </g>
                    <g id="Group-95">
                        <mask id="mask-52" fill="white">
                            <use xlink:href="#path-51"></use>
                        </mask>
                        <g id="Clip-94"></g>
                        <path d="M208.691684,247.332218 C208.691684,247.332218 216.063897,258.764085 217.953569,272.565779 C217.953569,272.565779 210.111181,248.546226 208.691684,247.332218" id="Fill-93" fill="#986734" mask="url(#mask-52)"></path>
                    </g>
                    <g id="Group-98">
                        <mask id="mask-54" fill="white">
                            <use xlink:href="#path-53"></use>
                        </mask>
                        <g id="Clip-97"></g>
                        <path d="M343.126139,295.874633 C344.387084,295.787101 345.633569,295.595127 346.87806,295.391218 L350.605052,294.750146 L358.04308,293.373508 L357.682596,293.659976 C357.948846,292.98608 358.149779,292.218683 358.17072,291.52738 C358.181191,291.182723 358.132827,290.852489 358.003193,290.622718 C357.96879,290.56801 357.943361,290.504848 357.893502,290.467548 C357.850124,290.421792 357.829183,290.388968 357.709521,290.28751 C357.676115,290.247226 357.661157,290.260157 357.563432,290.106478 C357.539999,290.061718 357.522049,290.011984 357.512077,289.96225 C357.506593,289.928928 357.503601,289.931415 357.501607,289.870242 C357.50061,289.794646 357.521551,289.693189 357.575399,289.607149 C357.626255,289.522103 357.708025,289.457947 357.760377,289.430593 C357.782814,289.419154 357.807245,289.40871 357.832673,289.399758 C357.88353,289.381853 357.938375,289.371907 357.990229,289.369917 C358.052055,289.36942 358.052055,289.372404 358.085461,289.375388 C358.115376,289.378869 358.132328,289.382351 358.140306,289.38434 C358.241022,289.407218 358.281408,289.423133 358.337749,289.44054 L358.626934,289.540505 C360.09679,290.054755 361.616006,290.393941 363.172617,290.479484 C364.724242,290.584423 366.295811,290.454617 367.832977,290.126372 C369.376625,289.81255 370.872407,289.261497 372.324812,288.592574 C370.989078,289.471872 369.514237,290.15671 367.965104,290.637638 C366.412482,291.107625 364.777592,291.335407 363.139211,291.309545 C361.504819,291.270752 359.856966,290.991744 358.314315,290.453622 L358.036598,290.361614 L357.946851,290.334758 C357.942364,290.333763 357.94735,290.334758 357.964801,290.337742 C357.98624,290.339731 357.973277,290.339731 358.022139,290.339731 C358.06801,290.338736 358.116872,290.329287 358.161745,290.312377 C358.184182,290.30442 358.205123,290.294473 358.224568,290.283034 C358.275425,290.258167 358.356197,290.197492 358.405059,290.114436 C358.457412,290.03138 358.476857,289.932409 358.474364,289.859798 C358.471871,289.801111 358.470874,289.806582 358.466885,289.776244 C358.458908,289.731981 358.443451,289.688215 358.42251,289.649423 C358.35171,289.537024 358.374147,289.584271 358.376141,289.5788 C358.410045,289.604662 358.527215,289.715569 358.619954,289.815534 C358.722664,289.911024 358.787481,290.027899 358.857783,290.142784 C359.119545,290.611279 359.168407,291.101657 359.16392,291.546776 C359.134503,292.449947 358.89767,293.241215 358.579069,294.043425 L358.483837,294.282646 L358.219084,294.330391 C356.973097,294.552205 355.726113,294.762082 354.474143,294.947093 C353.224167,295.143045 351.968208,295.307167 350.711751,295.461343 C349.453299,295.608556 348.192853,295.738859 346.92792,295.821417 C345.662986,295.885574 344.39207,295.984048 343.126139,295.874633" id="Fill-96" fill="#986734" mask="url(#mask-54)"></path>
                    </g>
                    <g id="Group-101">
                        <mask id="mask-56" fill="white">
                            <use xlink:href="#path-55"></use>
                        </mask>
                        <g id="Clip-100"></g>
                        <path d="M230.577725,334.777695 C230.577725,334.777695 224.579138,340.238493 225.034853,347.975618 C225.034853,347.975618 221.859805,337.275836 230.577725,334.777695" id="Fill-99" fill="#986734" mask="url(#mask-56)"></path>
                    </g>
                </g>
                <g id="Group-107" transform="translate(140.000000, 11.000000)" fill="#DCEFEF">
                    <path d="M274.196855,50.419563 C279.231412,42.4439329 285.007195,34.9340948 291.43747,28.0272509 C297.841825,21.147748 304.879238,14.8553318 312.436556,9.25936647 C316.710446,6.09476532 321.155809,3.16281156 325.740247,0.465493642 C326.298534,0.137401156 325.454124,0.00467283237 325.144574,0.187112139 C316.976629,4.99217572 309.260299,10.556326 302.122195,16.7826266 C294.989574,23.0054474 288.43169,29.8869387 282.565186,37.3092855 C279.247861,41.507378 276.156345,45.8799561 273.301103,50.4031584 C273.066323,50.7744994 274.029369,50.6845225 274.196855,50.419563" id="Fill-103"></path>
                    <path d="M0.89993945,85.5415653 C2.52844404,77.0007214 5.04073761,68.6358543 8.40641346,60.6154844 C10.1116826,56.5506173 12.0626979,52.5980971 14.0640587,48.6714266 C15.9268446,45.016178 17.7706887,41.3430335 19.8368508,37.7961549 C22.1308141,33.8590451 24.7388141,30.0899584 27.9504624,26.8368717 C28.1633095,26.621126 27.7032208,26.5231954 27.5442086,26.6837618 C21.8202667,32.4815538 18.1021719,39.8144208 14.4304349,46.9867214 C12.3757376,50.9993919 10.3344991,55.0210104 8.53900673,59.1569642 C6.8048263,63.1527329 5.28050214,67.2389757 3.97450826,71.3933225 C2.51099755,76.0462705 1.3246367,80.7832301 0.41093945,85.5733803 C0.363584709,85.820941 0.857070948,85.766259 0.89993945,85.5415653" id="Fill-105"></path>
                </g>
            </g>
        </g>
    </g>
</svg>