<svg xmlns="http://www.w3.org/2000/svg" width="56.986" height="57.005" viewBox="0 0 56.986 57.005">
  <path id="Tracé_7" data-name="Tracé 7" d="M-251.59-4882.485a28.523,28.523,0,0,1,29.287-.708,14.606,14.606,0,0,0-5.1,4.947,33.636,33.636,0,0,0-3.182,7s4.371-2.482,7.079-2.3c4.134.27,7.946,1.128,11.288.008v-.008a28.356,28.356,0,0,1,4.342,14.1c-.943-3.577-3.318-5.129-5.332-6.417h0c.825-1.284,1.247-2.2,1.508-2.461a12.169,12.169,0,0,1-5.9.237c-1.364-.274-3.927-1-5.312-1.344l-.183-.045-.195-.045-.187-.039-.393-.074a10.308,10.308,0,0,0-4.47.158c-.16.045-.315.088-.467.134s-.309.1-.459.152c-6.619,2.321-4.569,8.076-7.121,9.73-2.665,1.725.029,1.43.589.475a13.3,13.3,0,0,1,4.707-5.163c3.328-1.805,9.407-1.358,9.615-1.342-.218-.01-6.974-.222-9.893,2.181-2.968,2.441-3.39,3.63-3.39,3.63s4.283,4.153,9.23,2.842l.615-.165c1.045-.288,1.918-.56,2.682-.846h0c.008.07.016.144.025.216h0c.831,6.376,4.2,9.6,3.674,14.179-.368,3.231-1.243,4.349-1.729,4.729a35.21,35.21,0,0,0,7.643-5.989,22.55,22.55,0,0,0,3.1-4.081A28.527,28.527,0,0,1-246-4831.572q-1.251-.449-2.458-1.013a7.74,7.74,0,0,1,.729-4.1c1.7-2.953,5.312-4.822,5.431-10.444l.043-.012a29.969,29.969,0,0,0,7.454-3.126c-.475.2-1.661.389-4.246-.613-3.667-1.42-4.8-5.1-9.3-8.2s-9.156.5-9.156.5.243,1.247,2.951,4.272c2.669,2.98,9.815,4.258,10.026,4.3-.2-.027-6.678-.932-9.874-3.422-3.248-2.531-4.307-7.053-5.1-8.5a4.61,4.61,0,0,0-1.443-1.778,7.972,7.972,0,0,1-3.4-.117q.133-.694.3-1.377a6.592,6.592,0,0,0,2.6.008,7.276,7.276,0,0,0,1.865-.648c5.989-3,8.429-9.07,10.191-11,1.9-2.074,3.591-3.282,6.186-3.678A38.1,38.1,0,0,0-251.59-4882.485Zm-12.914,19.57a22.648,22.648,0,0,1,5.322,3.772c2.457,2.214-.86,7.534,6.3,11.261l.1.051-.1-.051a10.883,10.883,0,0,0-.383,6.168,30.9,30.9,0,0,0,3.993,8.736A28.553,28.553,0,0,1-264.5-4862.915Zm16.744,16.4a16.7,16.7,0,0,1-.545,6.991s1.828-5.48,1.583-6.975A6.3,6.3,0,0,1-247.76-4846.511Zm31.306-20.261h0a8.589,8.589,0,0,1,1.4,2.029v.008q.2.372.428.829h0l.008.016c.333.681.7,1.508,1.1,2.511,1.729,4.4-.881,12.445-.98,12.749.107-.284,2.749-7.433,1.846-12.1a12.318,12.318,0,0,0-1.48-3.8c-.039-.068-.078-.134-.119-.2.041.066.08.13.119.2h0l-.119-.2-.01-.016a20.78,20.78,0,0,0-1.675-2.3Zm-45.621-3.921c3.894-2.354,9.037-6.164,9.335-6.386-.241.206-3.6,3.038-4.818,3.993a46.778,46.778,0,0,1-5.254,4.069Q-262.471-4869.873-262.075-4870.693Zm46.3-7.411q.231.24.457.488a101.554,101.554,0,0,0-10.712,2.505,69.87,69.87,0,0,1,10.251-3Z" transform="translate(264.862 4886.895)" fill="#085e6d"/>
</svg>
